<?xml version="1.0" encoding="UTF-8"?>
<svg version="1.1" xmlns="http://www.w3.org/2000/svg" width="1280" height="346">
<path d="M0 0 C7.86677142 -0.1623712 15.73314868 -0.28665792 23.60117626 -0.3626852 C27.25498425 -0.39918068 30.90764397 -0.44865549 34.56079102 -0.52807617 C38.08814533 -0.60427992 41.61439733 -0.64601803 45.14251137 -0.6641407 C47.13974539 -0.68332269 49.1365372 -0.73794814 51.13310242 -0.79307556 C60.03788438 -0.79693186 60.03788438 -0.79693186 62.89517212 1.5697937 C64.23950195 3.48022461 64.23950195 3.48022461 66 7 C66.99 7.495 66.99 7.495 68 8 C68 8.66 68 9.32 68 10 C68.66 10 69.32 10 70 10 C71.40234375 11.64453125 71.40234375 11.64453125 72.9375 13.8125 C74.43752322 15.91867071 75.83158512 17.83703041 77.69140625 19.63671875 C79 21 79 21 79 23 C79.66 23 80.32 23 81 23 C82.41706502 24.54888502 83.75809496 26.16761534 85.0625 27.8125 C85.86816406 28.81667969 86.67382812 29.82085937 87.50390625 30.85546875 C88.33648101 31.90321417 89.16852077 32.95138497 90 34 C95.0229035 40.31524574 100.13693412 46.224141 105.9140625 51.859375 C114 60.15730337 114 60.15730337 114 64 C114.66 64 115.32 64 116 64 C117.93206102 65.59605041 119.04588257 67.08270191 120.265625 69.28125 C122.27970328 72.4384538 124.6067648 74.72652071 127.3125 77.3125 C131.70613135 81.59262682 135.46863946 85.99476629 139 91 C140.17647331 92.59154367 141.36435399 94.17470738 142.5625 95.75 C143.10003906 96.46671875 143.63757813 97.1834375 144.19140625 97.921875 C146.25060603 100.28795336 148.54923967 102.04687497 151 104 C152.51241843 105.5747862 153.97259312 107.20149588 155.375 108.875 C156.43847656 110.10863281 156.43847656 110.10863281 157.5234375 111.3671875 C159 114 159 114 158.87890625 117.109375 C157.64378073 121.17156559 155.95113483 122.97688627 153 126 C152.34 126 151.68 126 151 126 C150.67 126.99 150.34 127.98 150 129 C149.34 129 148.68 129 148 129 C148 129.66 148 130.32 148 131 C147.02149805 132.02104551 146.02019573 133.0206121 145 134 C144.67 134.66 144.34 135.32 144 136 C143.34 136 142.68 136 142 136 C141.67 136.99 141.34 137.98 141 139 C140.34 139 139.68 139 139 139 C138.67 140.65 138.34 142.3 138 144 C137.34 144 136.68 144 136 144 C135.835 144.680625 135.67 145.36125 135.5 146.0625 C133.6153233 149.7533252 131.11334085 151.61833461 127.95703125 154.234375 C125.43632938 156.50854116 123.8317412 159.15764296 122 162 C120.33333333 163.33333333 118.66666667 164.66666667 117 166 C114.83274988 169.02101532 112.92143176 172.13012865 111 175.3125 C109 178 109 178 106.75 178.875 C106.1725 178.91625 105.595 178.9575 105 179 C104.67 180.32 104.34 181.64 104 183 C103.34 183 102.68 183 102 183 C102 183.66 102 184.32 102 185 C100.33333333 186.66666667 98.66666667 188.33333333 97 190 C96.278125 191.093125 95.55625 192.18625 94.8125 193.3125 C94.214375 194.199375 93.61625 195.08625 93 196 C92.34 196 91.68 196 91 196 C91 196.66 91 197.32 91 198 C90.02149805 199.02104551 89.02019573 200.0206121 88 201 C87.67 201.66 87.34 202.32 87 203 C86.34 203 85.68 203 85 203 C84.67 203.99 84.34 204.98 84 206 C83.34 206 82.68 206 82 206 C81.773125 206.53625 81.54625 207.0725 81.3125 207.625 C79.58168411 210.75695256 77.31514283 213.27970717 75 216 C74.34 216.99 73.68 217.98 73 219 C72.34 219 71.68 219 71 219 C70.67 219.99 70.34 220.98 70 222 C69.34 222 68.68 222 68 222 C67.896875 222.598125 67.79375 223.19625 67.6875 223.8125 C66.90175967 226.31258286 66.03081147 227.37535082 64 229 C63.34 229 62.68 229 62 229 C62 229.66 62 230.32 62 231 C42.2 231 22.4 231 2 231 C1.67 229.68 1.34 228.36 1 227 C1.66 227 2.32 227 3 227 C3.268125 226.4225 3.53625 225.845 3.8125 225.25 C5.02929189 222.94449957 6.30333879 220.97943808 8 219 C8.66 219 9.32 219 10 219 C10.0928125 217.88625 10.0928125 217.88625 10.1875 216.75 C11.25567201 213.1346486 13.04279541 212.2694826 16 210 C17.3703055 208.02514795 18.70672372 206.02613283 20 204 C21.625 202.125 21.625 202.125 23 201 C23.66 201 24.32 201 25 201 C25 200.34 25 199.68 25 199 C26.64174046 197.30877446 28.31343149 195.64652428 30 194 C31.6079119 192.12496725 33.19171814 190.22897753 34.75 188.3125 C35.52859375 187.35988281 36.3071875 186.40726563 37.109375 185.42578125 C38.99986059 183.1645281 38.99986059 183.1645281 40 181 C40.66 181 41.32 181 42 181 C42.33 180.01 42.66 179.02 43 178 C43.66 178 44.32 178 45 178 C45.3403125 177.195625 45.3403125 177.195625 45.6875 176.375 C47.45570089 173.17539839 49.53670203 170.70962777 52 168 C52.66 168 53.32 168 54 168 C54 167.01 54 166.02 54 165 C55.375 163.3125 55.375 163.3125 57 162 C57.66 162 58.32 162 59 162 C59.2475 161.278125 59.495 160.55625 59.75 159.8125 C62.07525383 154.58067889 66.00096371 150.99903629 70 147 C70.66 146.01 71.32 145.02 72 144 C72.66 144 73.32 144 74 144 C74 143.34 74 142.68 74 142 C74.66 142 75.32 142 76 142 C76.38671875 141.15501953 76.38671875 141.15501953 76.78125 140.29296875 C78.13715796 137.7419496 79.72353944 135.58953101 81.5 133.3125 C82.1084375 132.52488281 82.716875 131.73726562 83.34375 130.92578125 C85 129 85 129 87 128 C88.13350534 125.98330173 88.13350534 125.98330173 89 124 C89.66 124 90.32 124 91 124 C91.495 122.515 91.495 122.515 92 121 C92.66 121 93.32 121 94 121 C94.66 119.02 95.32 117.04 96 115 C95.43152344 114.3709375 94.86304688 113.741875 94.27734375 113.09375 C91.84710954 110.39980089 89.42216881 107.70120266 87 105 C86.05447266 103.94619141 86.05447266 103.94619141 85.08984375 102.87109375 C81.45663587 98.77442427 78.05786382 94.5576866 74.7734375 90.17578125 C72.98585527 87.90759572 72.98585527 87.90759572 70.68359375 85.68359375 C67.50966037 82.50966037 64.60630274 79.15699035 61.6875 75.75 C60.53298595 74.40978238 59.37803946 73.06993715 58.22265625 71.73046875 C57.39145264 70.76633057 57.39145264 70.76633057 56.54345703 69.78271484 C53.4015076 66.15371853 50.19646434 62.58089435 47 59 C43.13903099 54.66625927 39.39430805 50.26816523 35.75 45.75 C31.54745277 40.57928916 27.10782512 35.68146477 22.58203125 30.796875 C17.22827893 24.99765161 12.12074512 19.05768938 7.30859375 12.80078125 C6.69113281 12.00027344 6.07367188 11.19976562 5.4375 10.375 C4.85871094 9.61960937 4.27992187 8.86421875 3.68359375 8.0859375 C2.21045702 6.26075186 0.69471618 4.61744949 -1 3 C-0.67 2.01 -0.34 1.02 0 0 Z " fill="#FEFEFE" transform="translate(92,52)"/>
<path d="M0 0 C1.34998022 0.00119456 2.69996129 0.00164438 4.04994202 0.00138855 C6.85960191 0.00294234 9.66913239 0.01115236 12.47875977 0.0246582 C16.08236323 0.04176165 19.68582659 0.04546867 23.2894659 0.04471302 C26.06807291 0.04498442 28.84664923 0.0504589 31.62524605 0.05771446 C33.60065972 0.06244175 35.57607981 0.06417564 37.55149841 0.06587219 C38.743564 0.07225204 39.93562958 0.0786319 41.16381836 0.08520508 C42.21588974 0.08901688 43.26796112 0.09282867 44.35191345 0.09675598 C46.84765625 0.23046875 46.84765625 0.23046875 48.84765625 1.23046875 C50.26160469 1.38317518 51.67909973 1.50414328 53.09765625 1.60546875 C57.22229822 2.01193589 60.24310003 3.10470483 63.84765625 5.23046875 C63.84765625 5.89046875 63.84765625 6.55046875 63.84765625 7.23046875 C64.59015625 7.45734375 65.33265625 7.68421875 66.09765625 7.91796875 C69.41077004 9.4992276 70.68385448 11.29886636 72.84765625 14.23046875 C73.83765625 15.15859375 73.83765625 15.15859375 74.84765625 16.10546875 C79.97491425 21.55318038 81.4757631 26.35775954 81.51953125 33.62109375 C81.53950165 34.79898468 81.53950165 34.79898468 81.55987549 36.00067139 C81.58002046 37.65448725 81.58951288 39.30846392 81.58886719 40.96240234 C81.59759218 43.46211128 81.67021875 45.9546698 81.74609375 48.453125 C81.89268356 59.05998247 80.37266529 65.23059909 72.84765625 73.23046875 C72.18765625 74.22046875 71.52765625 75.21046875 70.84765625 76.23046875 C70.18765625 76.23046875 69.52765625 76.23046875 68.84765625 76.23046875 C68.35265625 77.71546875 68.35265625 77.71546875 67.84765625 79.23046875 C65.24523211 80.8786707 63.98516846 81.23046875 60.84765625 81.23046875 C60.84765625 81.89046875 60.84765625 82.55046875 60.84765625 83.23046875 C59.69265625 83.84921875 58.53765625 84.46796875 57.34765625 85.10546875 C56.69796875 85.45351562 56.04828125 85.8015625 55.37890625 86.16015625 C48.82519471 88.9313244 42.78414262 89.502218 35.7734375 89.35546875 C34.50490181 89.34410889 34.50490181 89.34410889 33.21073914 89.33251953 C29.63315839 89.30022134 26.0560569 89.24417278 22.47875977 89.18945312 C8.98233244 89.00119425 -3.46126599 89.06002966 -16.15234375 94.23046875 C-17.14234375 94.23046875 -18.13234375 94.23046875 -19.15234375 94.23046875 C-19.15234375 94.89046875 -19.15234375 95.55046875 -19.15234375 96.23046875 C-21.02734375 98.35546875 -21.02734375 98.35546875 -23.15234375 100.23046875 C-23.81234375 100.23046875 -24.47234375 100.23046875 -25.15234375 100.23046875 C-25.48234375 101.88046875 -25.81234375 103.53046875 -26.15234375 105.23046875 C-26.81234375 105.23046875 -27.47234375 105.23046875 -28.15234375 105.23046875 C-28.25629843 119.8489627 -28.25629843 119.8489627 -21.15234375 132.23046875 C-14.89026214 137.38677011 -9.50608926 138.38893031 -1.52563477 138.29638672 C-0.76255005 138.29171387 0.00053467 138.28704102 0.78674316 138.28222656 C2.44058603 138.27174048 4.09441624 138.25908323 5.74822807 138.24450302 C8.36690869 138.22246132 10.98551674 138.20839474 13.60426331 138.19680786 C21.04885782 138.16322949 28.49333189 138.12156163 35.93774414 138.05908203 C40.49404152 138.0214121 45.05021567 137.99840502 49.60664558 137.98477554 C51.34139508 137.97672688 53.07612811 137.96312587 54.81078911 137.94384384 C57.23786471 137.91733363 59.6643502 137.90946903 62.09155273 137.90576172 C62.80600052 137.89340485 63.5204483 137.88104797 64.25654602 137.86831665 C69.65400559 137.89003287 72.75932539 139.28616071 76.66015625 142.91796875 C78.48014097 146.46214952 78.09965227 149.26153149 77.84765625 153.23046875 C76.84765625 156.23046875 76.84765625 156.23046875 74.26135254 157.8946991 C70.46399412 159.38059465 67.238988 159.64748339 63.22851562 159.6027832 C62.48934906 159.60643387 61.7501825 159.61008453 60.98861694 159.61384583 C58.55597603 159.62191941 56.12400858 159.60835769 53.69140625 159.59375 C51.98474122 159.59323057 50.27807558 159.59375148 48.57141113 159.59526062 C44.99380558 159.59517101 41.41642584 159.5847727 37.83886719 159.56665039 C33.29129172 159.5441016 28.74404984 159.54339542 24.19643402 159.55016804 C20.66842782 159.55354048 17.1404952 159.54681471 13.61250305 159.5370388 C11.93826179 159.53323225 10.26401227 159.53201935 8.58976746 159.53362465 C-9.03196432 159.53644695 -25.72360047 159.14554425 -39.15234375 146.23046875 C-47.09693581 136.54563272 -49.30487944 127.98753731 -49.29760742 115.63989258 C-49.30096603 114.80958527 -49.30432465 113.97927795 -49.30778503 113.12380981 C-49.31723696 110.39502439 -49.31923543 107.66630075 -49.3203125 104.9375 C-49.32352975 103.02569047 -49.32689417 101.11388117 -49.33039856 99.20207214 C-49.33637593 95.19842967 -49.33823996 91.19480873 -49.33764648 87.19116211 C-49.3375451 82.0885619 -49.35117935 76.98610157 -49.36841869 71.88353443 C-49.37959948 67.93443685 -49.38156381 63.98537239 -49.38103676 60.0362606 C-49.38220842 58.15660814 -49.38658388 56.27695459 -49.39436913 54.39731789 C-49.50927998 23.78137244 -49.50927998 23.78137244 -37.90234375 11.60546875 C-35.15234375 9.23046875 -35.15234375 9.23046875 -33.15234375 9.23046875 C-33.15234375 8.57046875 -33.15234375 7.91046875 -33.15234375 7.23046875 C-31.6804407 6.42537773 -30.19927308 5.63722301 -28.71484375 4.85546875 C-27.47927734 4.19417969 -27.47927734 4.19417969 -26.21875 3.51953125 C-17.61882841 -0.09572241 -9.18800344 -0.05151517 0 0 Z M-22.15234375 27.23046875 C-26.94750667 33.61540266 -28.30175096 38.65748545 -28.25 46.6171875 C-28.24787758 47.84270073 -28.24787758 47.84270073 -28.24571228 49.0929718 C-28.24011669 51.70134143 -28.22756504 54.30962509 -28.21484375 56.91796875 C-28.20982818 58.68684772 -28.20526537 60.45572803 -28.20117188 62.22460938 C-28.19014871 66.55992894 -28.17288713 70.89518427 -28.15234375 75.23046875 C-27.40984375 74.96234375 -26.66734375 74.69421875 -25.90234375 74.41796875 C-16.26474128 71.3660613 -7.64325676 69.81399233 2.48046875 69.9296875 C4.85677363 69.92205067 7.23307591 69.91356169 9.609375 69.90429688 C13.30017584 69.90650929 16.99044959 69.91810112 20.68115234 69.94555664 C24.28145751 69.96634693 27.88019442 69.95021614 31.48046875 69.9296875 C32.57239532 69.9481926 33.6643219 69.96669769 34.78933716 69.98576355 C43.72741124 69.90094643 49.89239408 67.04826525 56.3203125 60.84375 C60.58665402 54.66960957 62.04442264 49.73074039 61.84765625 42.23046875 C61.82703125 41.01359375 61.80640625 39.79671875 61.78515625 38.54296875 C59.81721881 31.58958979 54.68775574 26.28278268 48.84765625 22.23046875 C42.67689208 19.9133854 36.79445173 19.92405039 30.25390625 19.9296875 C29.14841431 19.92540237 28.04292236 19.92111725 26.90393066 19.91670227 C24.57414432 19.9109771 22.2443401 19.91044529 19.91455078 19.91479492 C16.3593897 19.91795831 12.80505858 19.89446015 9.25 19.86914062 C6.98046979 19.86686773 4.71093736 19.86616409 2.44140625 19.8671875 C1.38393188 19.85797775 0.32645752 19.84876801 -0.76306152 19.83927917 C-9.30361055 19.8925865 -15.36376029 21.77008641 -22.15234375 27.23046875 Z " fill="#FEFEFE" transform="translate(1199.15234375,124.76953125)"/>
<path d="M0 0 C1.21796265 -0.00315216 2.43592529 -0.00630432 3.6907959 -0.009552 C5.03019242 -0.00776222 6.36958862 -0.00571127 7.70898438 -0.00341797 C9.07279477 -0.00409106 10.43660505 -0.00506114 11.80041504 -0.00631714 C14.66203959 -0.00779385 17.52363297 -0.00564044 20.38525391 -0.00097656 C24.06092051 0.00472073 27.73651411 0.00144157 31.41217804 -0.00454903 C34.22935541 -0.00815538 37.04651535 -0.00701571 39.86369324 -0.00442123 C41.21933501 -0.00375217 42.57497834 -0.00457968 43.93061829 -0.00690079 C45.82223482 -0.00942848 47.71385687 -0.00489561 49.60546875 0 C51.2231012 0.00119339 51.2231012 0.00119339 52.87341309 0.00241089 C55.30273438 0.12939453 55.30273438 0.12939453 56.30273438 1.12939453 C57.92597524 1.35101782 59.55145538 1.55629256 61.17773438 1.75439453 C67.82132574 2.88633015 73.1106349 5.8712704 78.30273438 10.12939453 C78.30273438 10.78939453 78.30273438 11.44939453 78.30273438 12.12939453 C78.96273437 12.12939453 79.62273437 12.12939453 80.30273438 12.12939453 C89.42234556 23.68090203 91.7526399 38.83240433 90.30273438 53.12939453 C89.41740675 56.7712017 88.04934391 59.82773909 86.30273438 63.12939453 C85.67238281 64.50998047 85.67238281 64.50998047 85.02929688 65.91845703 C82.64789988 71.04206875 82.64789988 71.04206875 81.30273438 73.12939453 C79.81773437 73.62439453 79.81773437 73.62439453 78.30273438 74.12939453 C78.30273438 74.78939453 78.30273438 75.44939453 78.30273438 76.12939453 C73.99949075 80.25727086 69.65124264 82.61484473 64.17773438 84.87939453 C63.12392578 85.33378906 63.12392578 85.33378906 62.04882812 85.79736328 C55.56905888 88.5534088 50.62838529 89.2552645 43.61914062 89.15673828 C41.86849168 89.14407485 40.11784052 89.1317152 38.3671875 89.11962891 C35.62924133 89.09500665 32.8914136 89.06721744 30.15356445 89.03344727 C10.22449909 88.77982264 10.22449909 88.77982264 -8.77148438 94.32470703 C-10.69726562 95.12939453 -10.69726562 95.12939453 -12.69726562 95.12939453 C-12.69726562 95.78939453 -12.69726562 96.44939453 -12.69726562 97.12939453 C-13.46039063 97.64501953 -14.22351563 98.16064453 -15.00976562 98.69189453 C-19.63828617 102.88985503 -20.462147 108.01332693 -21.13476562 114.06689453 C-20.92691761 119.8058092 -18.22662275 125.07068028 -15.69726562 130.12939453 C-14.70726562 130.45939453 -13.71726562 130.78939453 -12.69726562 131.12939453 C-11.00976562 132.56689453 -11.00976562 132.56689453 -9.69726562 134.12939453 C-9.69726562 134.78939453 -9.69726562 135.44939453 -9.69726562 136.12939453 C-1.59276902 138.51655209 6.36956285 138.34938203 14.73195648 138.24915886 C17.33006101 138.21873532 19.92793735 138.20211498 22.52618408 138.18910217 C29.90679076 138.14954708 37.28711838 138.08408515 44.66748047 138.01293945 C49.19710397 137.97021607 53.7266365 137.94213157 58.25641632 137.92263985 C59.97722153 137.9120878 61.69800142 137.89570743 63.41869354 137.87333488 C65.82124352 137.84211813 68.22325487 137.8293652 70.62597656 137.82055664 C71.33256912 137.80662872 72.03916168 137.79270081 72.76716614 137.77835083 C77.10712364 137.78648051 79.89027956 138.39609553 83.30273438 141.12939453 C84.31920328 144.17880126 84.50118113 146.43309356 84.55273438 149.62939453 C84.57851563 150.58845703 84.60429687 151.54751953 84.63085938 152.53564453 C84.30273438 155.12939453 84.30273438 155.12939453 82.97460938 156.91064453 C79.25916091 159.61910229 75.29897766 159.27746538 70.91650391 159.2746582 C70.16641556 159.27801682 69.41632721 159.28137543 68.64350891 159.28483582 C66.15750478 159.29435083 63.67156811 159.29629001 61.18554688 159.29736328 C59.44977796 159.30057838 57.71400932 159.30394264 55.97824097 159.30744934 C52.33151625 159.31344402 48.68481523 159.31528918 45.03808594 159.31469727 C40.39731626 159.31459628 35.7567018 159.32818012 31.1159687 159.34546947 C27.52453943 159.3566759 23.93314646 159.35861375 20.34170151 159.35808754 C18.63313137 159.35925731 16.92455997 159.3636218 15.21600723 159.37141991 C-1.15866238 159.43908675 -16.39617042 158.95727022 -29.69726562 148.12939453 C-29.69726562 147.46939453 -29.69726562 146.80939453 -29.69726562 146.12939453 C-30.68726563 145.79939453 -31.67726563 145.46939453 -32.69726562 145.12939453 C-33.38476562 143.06689453 -33.38476562 143.06689453 -33.69726562 141.12939453 C-34.35726563 141.12939453 -35.01726562 141.12939453 -35.69726562 141.12939453 C-42.24697337 132.30152757 -42.88134073 121.07293413 -42.76660156 110.48535156 C-42.7618129 109.66143921 -42.75702423 108.83752686 -42.75209045 107.98864746 C-42.73453024 105.28808489 -42.70874609 102.58768965 -42.68164062 99.88720703 C-42.66492301 97.99445646 -42.64826134 96.10170539 -42.63165283 94.20895386 C-42.5952853 90.2499273 -42.55408383 86.29098178 -42.51025391 82.33203125 C-42.45529432 77.27981317 -42.41872369 72.22764169 -42.38662338 67.17523384 C-42.35864813 63.26813583 -42.31758974 59.36125204 -42.27301788 55.45431137 C-42.25393397 53.59259152 -42.23958159 51.73081648 -42.23021698 49.86902237 C-42.14697163 34.83180612 -41.07717701 23.85484999 -30.69726562 12.12939453 C-24.74291205 6.56415525 -19.27193071 2.2233698 -10.94726562 1.56689453 C-6.83784501 1.23351438 -4.28671731 0.00316248 0 0 Z M-15.69726562 28.12939453 C-15.69726562 28.78939453 -15.69726562 29.44939453 -15.69726562 30.12939453 C-16.68726563 30.45939453 -17.67726563 30.78939453 -18.69726562 31.12939453 C-18.83003906 31.97244141 -18.9628125 32.81548828 -19.09960938 33.68408203 C-19.27621094 34.77978516 -19.4528125 35.87548828 -19.63476562 37.00439453 C-19.80878906 38.09494141 -19.9828125 39.18548828 -20.16210938 40.30908203 C-20.69726562 43.12939453 -20.69726562 43.12939453 -21.69726562 45.12939453 C-21.78285681 47.30764415 -21.80439974 49.48854708 -21.79492188 51.66845703 C-21.79169922 52.97041016 -21.78847656 54.27236328 -21.78515625 55.61376953 C-21.77680028 56.99397852 -21.76833533 58.37418685 -21.75976562 59.75439453 C-21.75475064 61.14241379 -21.75018773 62.53043475 -21.74609375 63.91845703 C-21.73427539 67.32214585 -21.71779996 70.72574892 -21.69726562 74.12939453 C-21.03726562 74.45939453 -20.37726563 74.78939453 -19.69726562 75.12939453 C-18.08290335 74.40808373 -16.46896835 73.68580384 -14.85700989 72.95913696 C-6.79957107 69.86358579 1.96060871 69.84791903 10.47070312 69.85595703 C12.76823418 69.83568442 15.0657602 69.81483398 17.36328125 69.79345703 C20.93778802 69.77081955 24.51209458 69.75435892 28.08666992 69.74853516 C31.56920265 69.73899724 35.05086616 69.7052294 38.53320312 69.66845703 C39.59484177 69.6735025 40.65648041 69.67854797 41.75028992 69.68374634 C50.4136962 69.56940974 57.00672596 67.25524056 63.30273438 61.12939453 C68.73242208 53.54628961 70.11197168 47.47132523 69.30273438 38.12939453 C67.52760309 31.11282829 62.11133929 26.13338432 56.30273438 22.12939453 C50.57087218 19.5750404 44.85233723 19.7890224 38.69335938 19.75830078 C37.57137146 19.74927231 36.44938354 19.74024384 35.293396 19.73094177 C32.92316343 19.71646102 30.5528911 19.70755796 28.18261719 19.70385742 C24.57873197 19.69198021 20.97657022 19.64278572 17.37304688 19.59228516 C15.06315934 19.58281775 12.75326136 19.57558424 10.44335938 19.57080078 C9.37635803 19.55126846 8.30935669 19.53173615 7.21002197 19.51161194 C-1.75114195 19.56495746 -8.8321848 22.30282504 -15.69726562 28.12939453 Z " fill="#FEFEFE" transform="translate(352.697265625,124.87060546875)"/>
<path d="M0 0 C2.7421875 0.6015625 2.7421875 0.6015625 4.58203125 2.3046875 C6.7310428 6.55929623 6.35285527 10.96451387 5.7421875 15.6015625 C3.76141287 19.6338537 2.03464279 22.06854275 -2.2578125 23.6015625 C-2.2578125 24.5915625 -2.2578125 25.5815625 -2.2578125 26.6015625 C-3.88121055 28.31040255 -5.55100303 29.97602967 -7.2578125 31.6015625 C-7.9178125 32.5915625 -8.5778125 33.5815625 -9.2578125 34.6015625 C-9.9178125 34.6015625 -10.5778125 34.6015625 -11.2578125 34.6015625 C-11.6290625 35.4059375 -11.6290625 35.4059375 -12.0078125 36.2265625 C-13.56433787 39.1839607 -15.29216923 41.89880301 -17.2578125 44.6015625 C-17.9178125 44.6015625 -18.5778125 44.6015625 -19.2578125 44.6015625 C-19.2578125 45.2615625 -19.2578125 45.9215625 -19.2578125 46.6015625 C-20.59114583 47.93489583 -21.92447917 49.26822917 -23.2578125 50.6015625 C-23.5671875 51.2409375 -23.8765625 51.8803125 -24.1953125 52.5390625 C-25.68936468 55.43928145 -27.94892505 57.29590879 -30.2578125 59.6015625 C-32.19819898 61.77284319 -34.07371221 63.99592052 -35.9453125 66.2265625 C-36.43064453 66.79890625 -36.91597656 67.37125 -37.41601562 67.9609375 C-39.50803782 70.44250865 -41.45543912 72.89800243 -43.2578125 75.6015625 C-43.9178125 75.6015625 -44.5778125 75.6015625 -45.2578125 75.6015625 C-45.2578125 76.2615625 -45.2578125 76.9215625 -45.2578125 77.6015625 C-46.2478125 78.0965625 -46.2478125 78.0965625 -47.2578125 78.6015625 C-47.97940674 80.24519384 -48.65132671 81.91206636 -49.2578125 83.6015625 C-49.9178125 83.6015625 -50.5778125 83.6015625 -51.2578125 83.6015625 C-51.5053125 84.1378125 -51.7528125 84.6740625 -52.0078125 85.2265625 C-53.56433787 88.1839607 -55.29216923 90.89880301 -57.2578125 93.6015625 C-57.9178125 93.6015625 -58.5778125 93.6015625 -59.2578125 93.6015625 C-59.7528125 95.0865625 -59.7528125 95.0865625 -60.2578125 96.6015625 C-60.9178125 96.6015625 -61.5778125 96.6015625 -62.2578125 96.6015625 C-62.4846875 97.1378125 -62.7115625 97.6740625 -62.9453125 98.2265625 C-64.71351339 101.42616411 -66.79451453 103.89193473 -69.2578125 106.6015625 C-69.9178125 106.6015625 -70.5778125 106.6015625 -71.2578125 106.6015625 C-71.4640625 107.2615625 -71.6703125 107.9215625 -71.8828125 108.6015625 C-73.48083727 112.08816199 -75.56410465 114.82207789 -77.91796875 117.83203125 C-79.31734537 119.56780695 -79.31734537 119.56780695 -80.2578125 121.6015625 C-80.9178125 121.6015625 -81.5778125 121.6015625 -82.2578125 121.6015625 C-82.7528125 123.0865625 -82.7528125 123.0865625 -83.2578125 124.6015625 C-83.9178125 124.6015625 -84.5778125 124.6015625 -85.2578125 124.6015625 C-85.7528125 126.0865625 -85.7528125 126.0865625 -86.2578125 127.6015625 C-86.9178125 127.6015625 -87.5778125 127.6015625 -88.2578125 127.6015625 C-88.6290625 128.4059375 -88.6290625 128.4059375 -89.0078125 129.2265625 C-90.56433787 132.1839607 -92.29216923 134.89880301 -94.2578125 137.6015625 C-94.9178125 137.6015625 -95.5778125 137.6015625 -96.2578125 137.6015625 C-96.2578125 138.2615625 -96.2578125 138.9215625 -96.2578125 139.6015625 C-96.9178125 139.6015625 -97.5778125 139.6015625 -98.2578125 139.6015625 C-98.9178125 141.5815625 -99.5778125 143.5615625 -100.2578125 145.6015625 C-100.9178125 145.6015625 -101.5778125 145.6015625 -102.2578125 145.6015625 C-102.5465625 146.1996875 -102.8353125 146.7978125 -103.1328125 147.4140625 C-104.2578125 149.6015625 -104.2578125 149.6015625 -106.2578125 152.6015625 C-106.9178125 152.6015625 -107.5778125 152.6015625 -108.2578125 152.6015625 C-108.5878125 153.5915625 -108.9178125 154.5815625 -109.2578125 155.6015625 C-109.9178125 155.6015625 -110.5778125 155.6015625 -111.2578125 155.6015625 C-111.5053125 156.1378125 -111.7528125 156.6740625 -112.0078125 157.2265625 C-113.56433787 160.1839607 -115.29216923 162.89880301 -117.2578125 165.6015625 C-117.9178125 165.6015625 -118.5778125 165.6015625 -119.2578125 165.6015625 C-119.4846875 166.1171875 -119.7115625 166.6328125 -119.9453125 167.1640625 C-121.73998868 170.49703255 -123.75746265 173.74859921 -126.2578125 176.6015625 C-126.9178125 176.6015625 -127.5778125 176.6015625 -128.2578125 176.6015625 C-128.5053125 177.1378125 -128.7528125 177.6740625 -129.0078125 178.2265625 C-130.56433787 181.1839607 -132.29216923 183.89880301 -134.2578125 186.6015625 C-134.9178125 186.6015625 -135.5778125 186.6015625 -136.2578125 186.6015625 C-136.5465625 187.1790625 -136.8353125 187.7565625 -137.1328125 188.3515625 C-138.2578125 190.6015625 -138.2578125 190.6015625 -139.3828125 192.3515625 C-140.97354045 196.4420058 -140.67512177 200.67150714 -139.7578125 204.9140625 C-136.62531941 208.43811723 -131.94198314 209.43576677 -127.40950584 209.88195992 C-123.99929732 209.99575709 -120.60033757 210.01510271 -117.18823242 210.00219727 C-115.24787109 210.01266586 -115.24787109 210.01266586 -113.26831055 210.02334595 C-110.46969364 210.03838665 -107.6712666 210.04423967 -104.87261009 210.04281807 C-100.44778813 210.040776 -96.02322008 210.06040421 -91.59846497 210.08299255 C-83.0120727 210.12385964 -74.42570096 210.1425567 -65.8392334 210.15916443 C-54.8914698 210.18156405 -43.94376513 210.21500873 -32.99609834 210.26636356 C-28.5963452 210.2862924 -24.19672625 210.29586552 -19.79692972 210.29731572 C-17.72252064 210.29940139 -15.6481833 210.30594747 -13.5737915 210.31448364 C-11.04340023 210.32477753 -8.51296587 210.32787986 -5.9825592 210.32258606 C-4.870914 210.32941406 -3.7592688 210.33624207 -2.61393738 210.34327698 C-1.16248967 210.34572843 -1.16248967 210.34572843 0.31828022 210.34822941 C2.7421875 210.6015625 2.7421875 210.6015625 5.7421875 212.6015625 C6.75865641 215.65096923 6.94063426 217.90526153 6.9921875 221.1015625 C7.03085937 222.54015625 7.03085937 222.54015625 7.0703125 224.0078125 C6.7421875 226.6015625 6.7421875 226.6015625 5.4140625 228.3828125 C2.18600088 230.73597891 -0.77345447 230.73019075 -4.62498474 230.74200439 C-5.73926346 230.74771454 -6.85354218 230.75342468 -8.00158691 230.75930786 C-9.22494751 230.76042572 -10.44830811 230.76154358 -11.70874023 230.76269531 C-12.99688126 230.76766022 -14.28502228 230.77262512 -15.61219788 230.77774048 C-19.1499027 230.79086233 -22.68758854 230.7973101 -26.2253139 230.80175114 C-28.43940214 230.80468484 -30.65348523 230.80879042 -32.86757088 230.81325531 C-39.8055492 230.82693548 -46.7435157 230.83659713 -53.68150657 230.8404572 C-61.66919283 230.8449263 -69.65670697 230.86241829 -77.64434093 230.8914578 C-83.82967931 230.91315711 -90.01496958 230.92316601 -96.20034558 230.92449832 C-99.88846237 230.92554133 -103.5764175 230.93133961 -107.26449394 230.94931793 C-111.39054453 230.96903811 -115.51624125 230.96447702 -119.64233398 230.95800781 C-121.45004776 230.97182999 -121.45004776 230.97182999 -123.29428101 230.9859314 C-134.00159801 230.93360804 -143.72341484 230.08045569 -151.63671875 222.3203125 C-152.17167969 221.753125 -152.70664062 221.1859375 -153.2578125 220.6015625 C-153.77988281 220.11558594 -154.30195313 219.62960937 -154.83984375 219.12890625 C-156.43194172 217.41400182 -157.35888101 215.76433143 -158.3828125 213.6640625 C-158.71539062 212.99503906 -159.04796875 212.32601562 -159.390625 211.63671875 C-162.49126293 204.35999639 -162.65666065 194.52985405 -160.0078125 187.1015625 C-157.00757558 181.10108866 -152.98749575 175.7054743 -149.1328125 170.2265625 C-148.69066406 169.58589844 -148.24851562 168.94523438 -147.79296875 168.28515625 C-146.66511092 166.6870737 -145.46682874 165.13916155 -144.2578125 163.6015625 C-143.5978125 163.6015625 -142.9378125 163.6015625 -142.2578125 163.6015625 C-141.8865625 162.7971875 -141.8865625 162.7971875 -141.5078125 161.9765625 C-139.17374183 157.54182824 -136.81327246 153.92128335 -132.8828125 150.7890625 C-128.67563393 147.36903347 -126.07426974 143.17939548 -123.2578125 138.6015625 C-122.5978125 137.6115625 -121.9378125 136.6215625 -121.2578125 135.6015625 C-120.5978125 135.6015625 -119.9378125 135.6015625 -119.2578125 135.6015625 C-119.2578125 134.6115625 -119.2578125 133.6215625 -119.2578125 132.6015625 C-117.63441445 130.89272245 -115.96462197 129.22709533 -114.2578125 127.6015625 C-113.2678125 126.1165625 -113.2678125 126.1165625 -112.2578125 124.6015625 C-111.5978125 124.6015625 -110.9378125 124.6015625 -110.2578125 124.6015625 C-110.2578125 123.9415625 -110.2578125 123.2815625 -110.2578125 122.6015625 C-109.5978125 122.6015625 -108.9378125 122.6015625 -108.2578125 122.6015625 C-108.0103125 122.0653125 -107.7628125 121.5290625 -107.5078125 120.9765625 C-104.99321233 116.19882218 -102.05508997 112.39883997 -98.2578125 108.6015625 C-97.9484375 107.9621875 -97.6390625 107.3228125 -97.3203125 106.6640625 C-95.80830372 103.72898664 -93.69539641 101.79538802 -91.2578125 99.6015625 C-90.5978125 99.6015625 -89.9378125 99.6015625 -89.2578125 99.6015625 C-89.0309375 98.9003125 -88.8040625 98.1990625 -88.5703125 97.4765625 C-86.91939962 93.86027715 -84.966929 91.51386274 -82.2578125 88.6015625 C-81.5978125 88.6015625 -80.9378125 88.6015625 -80.2578125 88.6015625 C-79.5978125 86.9515625 -78.9378125 85.3015625 -78.2578125 83.6015625 C-77.5978125 83.6015625 -76.9378125 83.6015625 -76.2578125 83.6015625 C-76.0103125 83.0653125 -75.7628125 82.5290625 -75.5078125 81.9765625 C-73.95128713 79.0191643 -72.22345577 76.30432199 -70.2578125 73.6015625 C-69.5978125 73.6015625 -68.9378125 73.6015625 -68.2578125 73.6015625 C-68 73.03953125 -67.7421875 72.4775 -67.4765625 71.8984375 C-66.11611473 69.33451671 -64.52992288 67.14929885 -62.7578125 64.8515625 C-62.149375 64.05234375 -61.5409375 63.253125 -60.9140625 62.4296875 C-60.3675 61.82640625 -59.8209375 61.223125 -59.2578125 60.6015625 C-58.5978125 60.6015625 -57.9378125 60.6015625 -57.2578125 60.6015625 C-57.0309375 60.0859375 -56.8040625 59.5703125 -56.5703125 59.0390625 C-54.77563632 55.70609245 -52.75816235 52.45452579 -50.2578125 49.6015625 C-49.5978125 49.6015625 -48.9378125 49.6015625 -48.2578125 49.6015625 C-47.8865625 48.7971875 -47.8865625 48.7971875 -47.5078125 47.9765625 C-45.26617709 43.71745522 -42.74597329 39.92362039 -39.2578125 36.6015625 C-38.7628125 35.6115625 -38.7628125 35.6115625 -38.2578125 34.6015625 C-37.5978125 34.6015625 -36.9378125 34.6015625 -36.2578125 34.6015625 C-35.9278125 33.6115625 -35.5978125 32.6215625 -35.2578125 31.6015625 C-34.5978125 31.6015625 -33.9378125 31.6015625 -33.2578125 31.6015625 C-33.02191406 31.06789063 -32.78601563 30.53421875 -32.54296875 29.984375 C-30.88896066 26.91767307 -28.8147994 24.22888199 -26.6953125 21.4765625 C-23.72013432 17.70595106 -23.72013432 17.70595106 -21.2578125 13.6015625 C-20.5978125 13.6015625 -19.9378125 13.6015625 -19.2578125 13.6015625 C-19.2578125 12.9415625 -19.2578125 12.2815625 -19.2578125 11.6015625 C-17.61478297 9.91158927 -15.94309938 8.24939856 -14.2578125 6.6015625 C-13.5771875 5.5084375 -12.8965625 4.4153125 -12.1953125 3.2890625 C-8.1860569 -0.37897986 -5.26835769 -0.03941415 0 0 Z " fill="#FEFEFE" transform="translate(662.2578125,53.3984375)"/>
<path d="M0 0 C0.85464844 -0.00515625 1.70929687 -0.0103125 2.58984375 -0.015625 C5.21923987 0.26683777 6.83912569 0.83738635 9.0625 2.25 C10.24460251 4.61420502 10.18970791 6.03156609 10.19380188 8.66844177 C10.19781006 9.5976796 10.20181824 10.52691742 10.20594788 11.48431396 C10.20541916 12.50712463 10.20489044 13.5299353 10.2043457 14.58374023 C10.20955734 16.19627434 10.20955734 16.19627434 10.21487427 17.84138489 C10.22224171 20.18331316 10.2275818 22.52524847 10.23116493 24.86718559 C10.23832169 28.57956999 10.2539848 32.29182153 10.27250671 36.00416565 C10.32499668 46.56226144 10.37290784 57.12025255 10.38842773 67.6784668 C10.39853754 74.13241239 10.42794501 80.58602775 10.46974754 87.03984261 C10.48202623 89.49525511 10.48718456 91.95071435 10.48494911 94.40615654 C10.48258312 97.85502895 10.50486482 101.30296375 10.5324707 104.75170898 C10.52586929 105.75630157 10.51926788 106.76089417 10.51246643 107.79592896 C10.62526928 116.43295527 13.126501 123.61787571 17.0625 131.25 C18.0525 131.25 19.0425 131.25 20.0625 131.25 C20.0625 131.91 20.0625 132.57 20.0625 133.25 C21.43541868 133.73509793 22.81096703 134.21275513 24.1875 134.6875 C24.95320312 134.95433594 25.71890625 135.22117187 26.5078125 135.49609375 C32.56338097 137.2831346 38.44476783 137.41003869 44.703125 137.41796875 C46.08646027 137.42296135 46.08646027 137.42296135 47.4977417 137.42805481 C49.4442902 137.43310285 51.3908473 137.43546379 53.33740234 137.43530273 C56.28888514 137.43748256 59.23998979 137.45564267 62.19140625 137.47460938 C64.09114457 137.47754521 65.99088465 137.47952873 67.890625 137.48046875 C69.19583099 137.49124702 69.19583099 137.49124702 70.52740479 137.50224304 C79.58503973 137.46909847 88.27801712 136.78119552 95.0625 130.25 C101.22444329 122.75574465 101.35467402 114.49261328 101.30200195 105.23168945 C101.30401611 104.15590637 101.30603027 103.08012329 101.30810547 101.97174072 C101.3116373 99.64790923 101.31090083 97.3240681 101.30632973 95.00023842 C101.30071914 91.32257163 101.30992245 87.64521812 101.3235321 83.96757507 C101.36059908 73.51572187 101.37916718 63.06397771 101.36791992 52.61206055 C101.36207553 46.20955566 101.38029108 39.80749508 101.41380882 33.4050808 C101.42176929 30.96702503 101.42047719 28.52892094 101.40978432 26.09087563 C101.3954892 22.68679862 101.41169416 19.28412599 101.43481445 15.88012695 C101.41716286 14.3690461 101.41716286 14.3690461 101.39915466 12.82743835 C101.46189681 8.12432547 101.52108138 5.96002452 104.44548035 2.12492371 C107.29414314 0.08404281 108.60144843 -0.40443418 112.0625 -0.3125 C112.8875 -0.31378906 113.7125 -0.31507812 114.5625 -0.31640625 C118.17327625 0.50166024 119.5629209 1.45990808 122.0625 4.25 C122.82752777 7.94287928 122.72425796 11.60227612 122.67773438 15.36157227 C122.68328339 16.49540848 122.6888324 17.62924469 122.69454956 18.79743958 C122.70638039 22.5541889 122.68202334 26.30974077 122.65625 30.06640625 C122.65453896 32.67992599 122.65460451 35.29344746 122.65637207 37.90696716 C122.65631848 43.39230879 122.63656615 48.87730621 122.60449219 54.36254883 C122.56772712 60.68024349 122.5587988 66.9974852 122.5657897 73.31527287 C122.57212818 79.41179327 122.56105596 85.50813531 122.54182434 91.60462761 C122.53481735 94.18844794 122.531667 96.77228183 122.53251648 99.35611153 C122.5307063 102.98187497 122.50921497 106.60701178 122.48242188 110.23266602 C122.48535248 111.29022095 122.48828308 112.34777588 122.49130249 113.43737793 C122.41193015 120.44612448 121.21807826 126.5839862 119.0625 133.25 C118.4025 133.25 117.7425 133.25 117.0625 133.25 C116.9696875 134.24 116.9696875 134.24 116.875 135.25 C115.75871505 139.3716675 113.72488434 142.90750502 111.0625 146.25 C110.4025 146.25 109.7425 146.25 109.0625 146.25 C108.7325 147.24 108.4025 148.23 108.0625 149.25 C107.4025 149.25 106.7425 149.25 106.0625 149.25 C106.0625 149.91 106.0625 150.57 106.0625 151.25 C95.94893491 159.28898764 83.58826232 159.4040239 71.21484375 159.453125 C70.08534805 159.45882507 68.95585236 159.46452515 67.79212952 159.47039795 C65.40773443 159.47981183 63.02332655 159.4863675 60.63891602 159.49023438 C57.03573201 159.49990411 53.43312772 159.53094836 49.83007812 159.5625 C17.56555077 159.71425153 17.56555077 159.71425153 7.79296875 151.0234375 C5.70149956 148.88003567 3.81614869 146.67812896 2.0625 144.25 C1.60875 143.83621094 1.155 143.42242187 0.6875 142.99609375 C-5.03224962 136.85011279 -8.61732333 128.57459343 -8.9375 120.25 C-9.2675 119.92 -9.5975 119.59 -9.9375 119.25 C-10.03321971 117.75716202 -10.05938227 116.25980345 -10.05775452 114.76390076 C-10.05912918 113.79489838 -10.06050385 112.825896 -10.06192017 111.82752991 C-10.05832489 110.75579025 -10.05472961 109.6840506 -10.05102539 108.57983398 C-10.05117142 107.45802734 -10.05131744 106.3362207 -10.0514679 105.18041992 C-10.0507682 101.45229189 -10.04297315 97.72421311 -10.03515625 93.99609375 C-10.03329227 91.41919482 -10.03186827 88.84229553 -10.03086853 86.26539612 C-10.02743342 80.16324885 -10.0195426 74.06112206 -10.00951904 67.95898253 C-9.99835689 61.0135075 -9.9928472 54.06803165 -9.98782361 47.12254989 C-9.97735996 32.83169034 -9.95976115 18.5408458 -9.9375 4.25 C-9.2775 4.25 -8.6175 4.25 -7.9375 4.25 C-7.9375 3.59 -7.9375 2.93 -7.9375 2.25 C-4.71002945 0.09835297 -3.73244361 -0.02245079 0 0 Z " fill="#FEFEFE" transform="translate(736.9375,124.75)"/>
<path d="M0 0 C2.475 0.495 2.475 0.495 5 1 C5.33 1.99 5.66 2.98 6 4 C7.66270287 5.33827304 9.32916181 6.67189785 11 8 C11 8.66 11 9.32 11 10 C11.66 10 12.32 10 13 10 C14.3327188 11.46690559 15.58913869 13.00322501 16.8125 14.5625 C20.55103496 19.2356687 24.37914478 23.80220591 28.3125 28.3125 C32.64993942 33.29170018 36.96432359 38.28867367 41.25 43.3125 C44.71193099 47.36945038 48.21809418 51.37142559 51.8125 55.3125 C55.15528342 58.99196665 58.2248061 62.79774889 61.2265625 66.7578125 C63.82083549 70.03779641 66.65011555 73.09035202 69.49609375 76.15234375 C71 78 71 78 71 80 C71.66 80 72.32 80 73 80 C74.65625 81.6796875 74.65625 81.6796875 76.5 83.875 C78.28933258 85.99035504 80.04019124 88.04019124 82 90 C82 90.99 82 91.98 82 93 C82.66 93 83.32 93 84 93 C85.75 94.625 85.75 94.625 87 97 C86.12011258 102.16933857 83.65549485 104.44372572 80 108 C73.78345595 114.57446628 67.86302702 121.28836533 62.19140625 128.33984375 C59.27349078 131.88191226 56.17571803 135.24429848 53.078125 138.62890625 C50.57486892 141.48506497 48.35475438 144.48288969 46.19140625 147.6015625 C45.60166016 148.29378906 45.60166016 148.29378906 45 149 C44.34 149 43.68 149 43 149 C42.7525 149.56203125 42.505 150.1240625 42.25 150.703125 C40.78725133 153.39092569 39.03195127 155.46405482 37 157.75 C35.948125 158.94882812 35.948125 158.94882812 34.875 160.171875 C33 162 33 162 31 162 C30.71125 162.763125 30.4225 163.52625 30.125 164.3125 C29 167 29 167 27 170 C26.34 170 25.68 170 25 170 C24.73445313 170.57105469 24.46890625 171.14210937 24.1953125 171.73046875 C20.6521318 178.45788048 15.52354132 183.55750836 9.734375 188.359375 C7.38440535 190.58231926 6.1667995 193.01007627 5 196 C0.4993598 196.36491677 0.4993598 196.36491677 -1.625 194.8125 C-3 193 -3 193 -4.3125 190.6875 C-5.8112481 188.30060488 -7.1815328 186.7431257 -9.1875 184.8125 C-10.115625 183.884375 -11.04375 182.95625 -12 182 C-12 181.34 -12 180.68 -12 180 C-12.99 179.67 -13.98 179.34 -15 179 C-15.9375 176.5 -15.9375 176.5 -16 173 C-13.99049363 170.02058737 -11.50026263 167.56883524 -9 165 C-8.236875 164.01 -7.47375 163.02 -6.6875 162 C-5.8521875 161.01 -5.8521875 161.01 -5 160 C-4.34 160 -3.68 160 -3 160 C-2.67 159.01 -2.34 158.02 -2 157 C-1.34 157 -0.68 157 0 157 C0.27328125 156.41734375 0.5465625 155.8346875 0.828125 155.234375 C1.97700107 153.0438513 3.2445887 151.20865341 4.75 149.25 C5.27722656 148.56035156 5.80445312 147.87070313 6.34765625 147.16015625 C6.89292969 146.44730469 7.43820313 145.73445312 8 145 C9.53716857 142.92204442 11.07293444 140.84309454 12.60546875 138.76171875 C13.99176355 137.01040516 15.28768297 135.43799234 17 134 C17.99 134 18.98 134 20 134 C20.226875 133.278125 20.45375 132.55625 20.6875 131.8125 C22.27162323 128.41795021 24.34485945 126.65514055 27 124 C28.18959221 122.32858212 29.35454127 120.639467 30.5 118.9375 C32.99823001 115.26652009 35.33951484 112.58387188 39 110 C39.33 109.34 39.66 108.68 40 108 C40.66 108 41.32 108 42 108 C42 107.34 42 106.68 42 106 C42.97850195 104.97895449 43.97980427 103.9793879 45 103 C45.33 102.34 45.66 101.68 46 101 C46.66 101 47.32 101 48 101 C48 95.08611379 44.88553429 92.12443757 41.0625 88.03515625 C38.961063 85.88928445 38.961063 85.88928445 36.25 83.8125 C33.44922473 81.55631992 31.81245496 79.08788623 30 76 C30 75.34 30 74.68 30 74 C29.34 74 28.68 74 28 74 C28 73.34 28 72.68 28 72 C27.34 72 26.68 72 26 72 C24.6559907 70.00715862 23.32458708 68.00580329 22 66 C21.0925 65.0925 20.185 64.185 19.25 63.25 C18.5075 62.5075 17.765 61.765 17 61 C17 60.34 17 59.68 17 59 C16.43152344 58.77828125 15.86304687 58.5565625 15.27734375 58.328125 C12.30583809 56.59517144 10.68848076 54.44708478 8.5625 51.75 C7.78132813 50.76644531 7.00015625 49.78289062 6.1953125 48.76953125 C5.47085938 47.85558594 4.74640625 46.94164062 4 46 C2.98396944 44.80838813 1.96432858 43.61981976 0.9375 42.4375 C-1 40 -1 40 -1 38 C-1.66 38 -2.32 38 -3 38 C-4.83591526 36.17827997 -6.4449239 34.20572074 -8.109375 32.2265625 C-9.31013275 30.81244697 -10.54680565 29.42748981 -11.828125 28.0859375 C-15.9239715 23.7412779 -15.9239715 23.7412779 -16.25 20.5625 C-13.28060084 14.47523172 -9.27706022 10.16610017 -4 6 C-2.60644236 4.04148656 -1.25717453 2.04872887 0 0 Z " fill="#FEFEFE" transform="translate(72,70)"/>
<path d="M0 0 C4.53652073 2.76136045 4.53652073 2.76136045 5.6219635 5.66218567 C6.15995363 8.98916874 6.16137675 12.2940187 6.17358398 15.6550293 C6.180271 16.42144241 6.18695801 17.18785553 6.19384766 17.97749329 C6.20787704 19.63948174 6.21977778 21.30148922 6.22979546 22.9635067 C6.24625567 25.60015605 6.26949796 28.23666574 6.29469299 30.87324524 C6.36531281 38.36912012 6.42541194 45.86505312 6.47680664 53.36108398 C6.50874469 57.94991871 6.55006047 62.5385938 6.59700203 67.12729836 C6.61293755 68.8698417 6.62529773 70.61242178 6.63390923 72.35501671 C6.65414002 84.8086599 6.65414002 84.8086599 9 97 C9.66 97 10.32 97 11 97 C11.6496875 98.1446875 11.6496875 98.1446875 12.3125 99.3125 C14.20749829 102.33046024 15.95374309 103.27104338 19 105 C19 105.66 19 106.32 19 107 C24.75075817 108.21976511 30.42759181 108.16989932 36.27734375 108.2109375 C38.50456474 108.23899786 40.7317782 108.26766226 42.95898438 108.296875 C46.45239108 108.33815022 49.94565561 108.37506141 53.43920898 108.40136719 C56.82304502 108.42902343 60.20625158 108.47488233 63.58984375 108.5234375 C64.62858139 108.52669037 65.66731903 108.52994324 66.73753357 108.53329468 C72.56389552 108.63167204 76.87510201 109.1362158 82 112 C82.91796875 113.90625 82.91796875 113.90625 83 116 C83.07863281 116.7321875 83.15726563 117.464375 83.23828125 118.21875 C83.4391953 124.39421338 83.4391953 124.39421338 81.1875 127.5 C77.84624427 129.79114678 75.18948639 130.12753762 71.24414062 130.14526367 C69.79618103 130.15483345 69.79618103 130.15483345 68.31896973 130.16459656 C67.27527222 130.16570938 66.23157471 130.1668222 65.15625 130.16796875 C64.07678101 130.17129715 62.99731201 130.17462555 61.88513184 130.17805481 C59.59530056 130.18312273 57.30546188 130.18546318 55.015625 130.18530273 C51.54153924 130.18747404 48.06777892 130.20558917 44.59375 130.22460938 C42.36458441 130.2275465 40.13541732 130.22952916 37.90625 130.23046875 C36.36499451 130.24124702 36.36499451 130.24124702 34.79260254 130.25224304 C19.71137899 130.2053998 8.1840294 127.3583628 -3 117 C-11.84116635 108.08326813 -14.1345937 94.83702933 -14.17700195 82.70898438 C-14.18357315 81.88723221 -14.19014435 81.06548004 -14.19691467 80.21882629 C-14.21656187 77.5104665 -14.22828762 74.80216178 -14.23828125 72.09375 C-14.24235678 71.16680832 -14.2464323 70.23986664 -14.25063133 69.28483582 C-14.27144987 64.3837405 -14.28577292 59.48267287 -14.29516602 54.58154297 C-14.30625531 49.52065399 -14.34069612 44.46020167 -14.38033772 39.39946747 C-14.40646467 35.50469133 -14.41485408 31.61002025 -14.41844749 27.71516418 C-14.42331921 25.8492384 -14.43494985 23.98331749 -14.45348549 22.11747742 C-14.4778063 19.50830147 -14.47692573 16.90026997 -14.4699707 14.29101562 C-14.48278076 13.52203445 -14.49559082 12.75305328 -14.50878906 11.96076965 C-14.47322682 8.29971569 -14.11169388 6.17923727 -12.15812683 3.04431152 C-8.46138302 -0.45747339 -4.91596258 -0.42378988 0 0 Z " fill="#FEFEFE" transform="translate(1009,154)"/>
<path d="M0 0 C0.825 -0.00128906 1.65 -0.00257812 2.5 -0.00390625 C5.90227568 0.76692183 7.52440665 2.11655339 10 4.5625 C10.62361908 7.42015171 10.62361908 7.42015171 10.62145996 10.7938385 C10.63266876 12.07395309 10.64387756 13.35406769 10.65542603 14.67297363 C10.64251528 16.08935999 10.62910117 17.50574182 10.61523438 18.92211914 C10.6187357 20.41536591 10.6243944 21.90860896 10.63204956 23.40184021 C10.64630474 27.455642 10.62923018 31.5087661 10.60576439 35.5625031 C10.58567042 39.80252545 10.59153412 44.04251926 10.59387207 48.28257751 C10.59381849 55.40212191 10.5740543 62.52140099 10.54199219 69.64086914 C10.50508471 77.87638854 10.49631843 86.11156052 10.5032897 94.34715182 C10.50959051 102.26546813 10.49884918 110.18366509 10.47932434 118.10195732 C10.47114163 121.47391902 10.46844238 124.8458198 10.47001648 128.2177906 C10.47089416 132.18644361 10.45671119 136.15476542 10.43078995 140.12333107 C10.42361609 141.58142237 10.42155038 143.03954888 10.42490768 144.49765396 C10.42861045 146.48450691 10.4120633 148.47136717 10.39440918 150.45814514 C10.39068047 151.57108476 10.38695175 152.68402437 10.38311005 153.83068943 C10 156.5625 10 156.5625 8.66284943 158.38152218 C5.85833708 160.37332422 3.33492571 160.70013229 0 160.6875 C-1.0209375 160.69136719 -1.0209375 160.69136719 -2.0625 160.6953125 C-4.93183346 160.49862432 -6.63065514 159.93534952 -8.66284943 157.88387203 C-10.38394204 154.89595403 -10.38269767 152.86287725 -10.39440918 149.42054749 C-10.40575897 148.16015152 -10.41710876 146.89975555 -10.42880249 145.60116577 C-10.42615923 144.20684751 -10.42318802 142.81252983 -10.41992188 141.41821289 C-10.42726229 139.94791519 -10.43584844 138.47762325 -10.44558716 137.00733948 C-10.46781446 133.0155814 -10.47073327 129.02402968 -10.46883965 125.03221822 C-10.46872 121.69964495 -10.47728145 118.3671155 -10.48561716 115.03455442 C-10.50485543 107.17250203 -10.50773345 99.31055581 -10.50097656 91.44848633 C-10.49433437 83.33788448 -10.51720605 75.22773725 -10.55429029 67.11722761 C-10.58497699 60.15319319 -10.59634849 53.1893051 -10.59245348 46.22520441 C-10.59038497 42.06608956 -10.59588051 37.9073285 -10.62034607 33.74827766 C-10.64259413 29.83696676 -10.64075238 25.92639556 -10.62041855 22.01508141 C-10.61700503 20.58038383 -10.62211253 19.14563664 -10.63640213 17.71100616 C-10.65457421 15.75122742 -10.63884959 13.79122201 -10.62145996 11.83143616 C-10.62217247 10.73508882 -10.62288498 9.63874147 -10.62361908 8.50917149 C-9.44155241 2.92377128 -5.64848205 -0.1500378 0 0 Z " fill="#FEFEFE" transform="translate(927,124.4375)"/>
<path d="M0 0 C1.32 0 2.64 0 4 0 C6.18359375 2.23046875 6.18359375 2.23046875 8.4375 5.1875 C11.4270124 9.07126654 14.5240549 12.54762063 18 16 C18.474375 16.804375 18.94875 17.60875 19.4375 18.4375 C20.87457042 20.7942955 22.21965881 22.29322297 24.1875 24.1875 C27 27 27 27 27 29 C27.99 29.33 28.98 29.66 30 30 C31.859375 31.890625 31.859375 31.890625 33.75 34.25 C34.38421875 35.01828125 35.0184375 35.7865625 35.671875 36.578125 C37 39 37 39 36.82421875 41.62109375 C35.7641181 44.68081554 34.21108556 46.65490926 32 49 C31.34 49 30.68 49 30 49 C30 49.66 30 50.32 30 51 C28.9171875 51.8353125 28.9171875 51.8353125 27.8125 52.6875 C25.36988959 54.69586856 24.04732947 56.19422444 22.3125 58.75 C21.549375 59.8225 20.78625 60.895 20 62 C19.34 62 18.68 62 18 62 C17.71125 62.763125 17.4225 63.52625 17.125 64.3125 C16 67 16 67 14 70 C13.34 70 12.68 70 12 70 C12 70.66 12 71.32 12 72 C11.34 72 10.68 72 10 72 C9.7525 72.5775 9.505 73.155 9.25 73.75 C7.77179527 76.41076851 6.41685961 78.13556544 4 80 C0.91741383 79.79983207 -0.61054055 79.3410697 -2.94921875 77.29296875 C-3.52285156 76.59816406 -4.09648437 75.90335937 -4.6875 75.1875 C-5.26886719 74.50042969 -5.85023437 73.81335938 -6.44921875 73.10546875 C-8 71 -8 71 -9.01953125 68.80078125 C-9.92782902 66.64518214 -9.92782902 66.64518214 -13 66 C-13.33 65.01 -13.66 64.02 -14 63 C-15.43132685 61.583337 -15.43132685 61.583337 -17.1875 60.25 C-20.41104023 57.60232835 -23.03502095 54.76531096 -25.640625 51.515625 C-27.1188998 49.74087049 -27.1188998 49.74087049 -30 48 C-30 47.34 -30 46.68 -30 46 C-30.66 46 -31.32 46 -32 46 C-33.66680017 42.66639966 -33.87563897 39.55884695 -33 36 C-30.67857669 32.92918519 -27.89612561 30.51860458 -25 28 C-23.63875 26.576875 -23.63875 26.576875 -22.25 25.125 C-20 23 -20 23 -17.8125 21.9375 C-15.41803483 20.69898353 -15.18768248 19.40474227 -14 17 C-12.87000485 15.39028993 -11.7011076 13.80736832 -10.5 12.25 C-9.58734375 11.05117187 -9.58734375 11.05117187 -8.65625 9.828125 C-8.1096875 9.22484375 -7.563125 8.6215625 -7 8 C-6.34 8 -5.68 8 -5 8 C-4.731875 7.4225 -4.46375 6.845 -4.1875 6.25 C-2.94914955 3.90365177 -1.80878516 1.94792248 0 0 Z " fill="#FEFEFE" transform="translate(33,129)"/>
<path d="M0 0 C5.6443034 3.72737017 5.6443034 3.72737017 6.65698242 7.35058594 C6.99904842 9.99265016 7.14189237 12.53980027 7.17578125 15.203125 C7.19962891 16.18410156 7.22347656 17.16507813 7.24804688 18.17578125 C7.2906837 20.20942857 7.32211301 22.24334476 7.34179688 24.27734375 C7.62646268 34.40615039 11.00220901 42.58338861 18 50 C24.35196558 54.18959432 31.50728925 54.13102298 38.91015625 54.17578125 C40.40951951 54.19896222 41.90886855 54.22307883 43.40820312 54.24804688 C45.74074141 54.28319842 48.07274594 54.31255872 50.40551758 54.32592773 C52.67852747 54.34145539 54.95004452 54.38165881 57.22265625 54.42578125 C58.25882835 54.42291862 58.25882835 54.42291862 59.31593323 54.41999817 C64.63075946 54.55326864 68.23217751 56.23217751 72 60 C72.52818417 64.26876712 72.80815993 67.83265788 70.3125 71.4375 C61.43828528 77.43359103 50.09822676 76.14854586 39.82617188 75.86791992 C37.63667439 75.81279393 35.44779956 75.78410618 33.2578125 75.75585938 C21.93778869 75.51774731 12.55813807 73.61015139 3.5 66.5 C2.5203125 65.7471875 1.540625 64.994375 0.53125 64.21875 C-1.71061454 62.25365886 -3.42132457 60.51734731 -5 58 C-5 57.34 -5 56.68 -5 56 C-5.66 56 -6.32 56 -7 56 C-7.63691996 54.54683309 -8.25869795 53.0870304 -8.875 51.625 C-9.22304688 50.81289062 -9.57109375 50.00078125 -9.9296875 49.1640625 C-12.99766323 40.0944992 -13.33755557 31.27111618 -13.3125 21.75 C-13.33666992 19.88988281 -13.33666992 19.88988281 -13.36132812 17.9921875 C-13.36197266 16.79335937 -13.36261719 15.59453125 -13.36328125 14.359375 C-13.36626221 13.28139648 -13.36924316 12.20341797 -13.37231445 11.09277344 C-12.94045644 7.50537848 -11.83196203 5.09647979 -10 2 C-6.84873212 -0.39061701 -3.86161478 -0.54062607 0 0 Z " fill="#FEFEFE" transform="translate(1008,70)"/>
<path d="M0 0 C1.47893486 -0.01248528 1.47893486 -0.01248528 2.98774719 -0.02522278 C6.24325521 -0.04929594 9.49856284 -0.05809086 12.75415039 -0.06469727 C15.01949626 -0.07366426 17.28484151 -0.08278612 19.55018616 -0.09205627 C24.29714395 -0.10854057 29.04403125 -0.11624562 33.79101562 -0.11914062 C39.87200488 -0.12452968 45.95233154 -0.16223446 52.03313351 -0.20788479 C56.71117066 -0.2376302 61.38904759 -0.24486361 66.0671711 -0.24586678 C68.30906783 -0.25007255 70.55096488 -0.26252106 72.79276848 -0.28338432 C75.92874812 -0.31025082 79.06318265 -0.30548712 82.19921875 -0.29296875 C83.1235672 -0.30780304 84.04791565 -0.32263733 85.00027466 -0.33792114 C89.32323141 -0.28880038 92.27570131 -0.07078626 95.74391174 2.65586853 C98.64212175 5.82964263 98.9019124 7.19702082 98.72680664 11.43139648 C98.69780273 12.98213867 98.69780273 12.98213867 98.66821289 14.56420898 C98.09704791 17.67240914 97.61443426 18.41001701 95.16430664 20.30639648 C93.10124969 20.68950653 93.10124969 20.68950653 90.68566895 20.70080566 C89.31027199 20.71783035 89.31027199 20.71783035 87.90708923 20.73519897 C86.9033577 20.73226837 85.89962616 20.72933777 84.86547852 20.72631836 C83.80672012 20.7347879 82.74796173 20.74325745 81.65711975 20.75198364 C78.14897735 20.77542911 74.64127153 20.77637406 71.13305664 20.77514648 C68.70072248 20.78224291 66.26839 20.78994114 63.83605957 20.79821777 C58.73497871 20.81167956 53.63405266 20.81322342 48.53295898 20.80737305 C41.98526813 20.80147212 35.43831752 20.83207794 28.89076996 20.87248993 C23.8671262 20.89829494 18.84366245 20.90125093 13.81996155 20.89759827 C11.40534096 20.89929592 8.99071262 20.90899992 6.57615662 20.92674255 C3.20463992 20.94879176 -0.16535529 20.93930113 -3.53686523 20.92163086 C-4.54059677 20.9348941 -5.54432831 20.94815735 -6.57847595 20.96182251 C-9.09892785 20.93101187 -11.379164 20.86999977 -13.83569336 20.30639648 C-16.55160436 17.24128576 -17.23972879 14.792579 -17.14819336 10.74389648 C-17.14239258 9.62821289 -17.14239258 9.62821289 -17.13647461 8.48999023 C-16.785831 5.9444087 -16.31417795 4.41915543 -14.83569336 2.30639648 C-10.11928518 -0.32357512 -5.24674799 0.00376454 0 0 Z " fill="#FEFEFE" transform="translate(518.835693359375,51.693603515625)"/>
<path d="M0 0 C3 1 3 1 4.66796875 3.3359375 C6.53727517 8.4779006 6.39748858 13.19932907 6.3125 18.625 C6.31733398 20.17960937 6.31733398 20.17960937 6.32226562 21.765625 C6.26050915 30.45644581 6.26050915 30.45644581 4 34 C0.05444935 36.25460037 -3.52323228 36.3997114 -8 36 C-12.6 33.8 -12.6 33.8 -14 31 C-14.32499377 26.54799678 -14.3244997 22.08739033 -14.375 17.625 C-14.41238281 16.37976563 -14.44976563 15.13453125 -14.48828125 13.8515625 C-14.49988281 12.6553125 -14.51148438 11.4590625 -14.5234375 10.2265625 C-14.54325684 9.12908691 -14.56307617 8.03161133 -14.58349609 6.90087891 C-14 4 -14 4 -11.59228516 1.67333984 C-7.14593576 -1.19681261 -5.25217823 -0.92143478 0 0 Z " fill="#FEFEFE" transform="translate(931,69)"/>
</svg>
